<svg id="Layer_1" data-name="Layer 1" xmlns="http://www.w3.org/2000/svg" xmlns:xlink="http://www.w3.org/1999/xlink" viewBox="0 0 189.19 426.77"><defs><style>.cls-1,.cls-7{fill:none;}.cls-2{fill:#a97c50;}.cls-2,.cls-5,.cls-7{stroke:#414042;stroke-width:10px;}.cls-2,.cls-5,.cls-6,.cls-7{stroke-miterlimit:10;}.cls-3{clip-path:url(#clip-path);}.cls-4{fill:#c49a6c;}.cls-5,.cls-6{fill:#fff;}.cls-6{stroke:#000;stroke-width:8px;}</style><clipPath id="clip-path" transform="translate(3.76 -1.12)"><path class="cls-1" d="M36,231.42H151.34L97.59,419.11a5.22,5.22,0,0,1-10.06-.05Z"/></clipPath></defs><path class="cls-2" d="M36,231.42H151.34L97.59,419.11a5.22,5.22,0,0,1-10.06-.05Z" transform="translate(3.76 -1.12)"/><g class="cls-3"><path class="cls-4" d="M178.69,261.46,170,253.24,145,279.8,126.8,261.65l24.47-26-8.75-8.22L118.3,253.17l-20-19.93,13.32-14.17-8.74-8.22L89.83,224.76l-34.07-34-8.47,8.49L81.6,233.51,64,252.23,29.12,217.42l-8.47,8.49L55.79,261,36.46,281.54l-25.07-25L2.92,265l25.32,25.27-32,34L5,332.56l31.76-33.79,20,19.93L35.86,340.89l8.75,8.22,20.61-21.93L83.4,345.33l-20.11,21.4L72,375,91.9,353.81,113.17,375l8.47-8.49-21.52-21.47,19.33-20.57,11.45,11.42,8.47-8.49-11.7-11.68L145.26,297l12.28,12.25,8.47-8.49-12.52-12.5ZM90.1,242l20,19.93L92.49,280.64l-20-19.93ZM45,290l19.33-20.57,20,19.94L64.94,310Zm46.66,46.56L73.44,318.43l19.33-20.56L111,316Zm27.55-29.32L101,289.12l17.59-18.72,18.19,18.14Z" transform="translate(3.76 -1.12)"/></g><rect class="cls-5" x="10.63" y="161.33" width="173.56" height="69.43" rx="34.71"/><rect class="cls-5" x="26.07" y="104.27" width="140.3" height="57.05" rx="28.53"/><rect class="cls-5" x="46.02" y="55.95" width="102.78" height="48.33" rx="24.16"/><path class="cls-5" d="M130.54,35.22A33.42,33.42,0,0,0,109.23,7.55l-.1.25A23.06,23.06,0,0,1,87.75,22.22H74A17.42,17.42,0,0,0,56.59,39.65h0A17.42,17.42,0,0,0,74,57.07h39.28a17.42,17.42,0,0,0,17.42-17.42h0C130.71,38.67,130.54,35.22,130.54,35.22Z" transform="translate(3.76 -1.12)"/><path class="cls-6" d="M-36.45,43.42" transform="translate(3.76 -1.12)"/><path class="cls-7" d="M36,231.42H151.34L97.59,419.11a5.22,5.22,0,0,1-10.06-.05Z" transform="translate(3.76 -1.12)"/><path class="cls-7" d="M36,231.42H151.34L97.59,419.11a5.22,5.22,0,0,1-10.06-.05Z" transform="translate(3.76 -1.12)"/><path class="cls-7" d="M36,231.42H151.34L97.59,419.11a5.22,5.22,0,0,1-10.06-.05Z" transform="translate(3.76 -1.12)"/></svg>